REM DIRINDEX 1\4,1\2\5,1\2\6,1\2\7,1\3\8,1\3\9,1\3\10,1\3\11
REM DIRNAME folder01,folder02,folder03,folder04,folder05,folder06,folder07,folder08,folder09,folder10,folder11
TITLE ""
FILE "t_k_107-118.mp3" MP3
  TRACK 01 AUDIO
    TITLE "5:cjc108_0320"
    INDEX 01 00:00:00
  TRACK 02 AUDIO
    TITLE "0:"
    INDEX 01 00:00:62
  TRACK 03 AUDIO
    TITLE "6:cjc108_0321"
    INDEX 01 00:01:09
  TRACK 04 AUDIO
    TITLE "0:"
    INDEX 01 00:02:28
  TRACK 05 AUDIO
    TITLE "7:cjc108_0322"
    INDEX 01 00:02:47
  TRACK 06 AUDIO
    TITLE "0:"
    INDEX 01 00:07:52
  TRACK 07 AUDIO
    TITLE "5:cjc108_0323"
    INDEX 01 00:08:44
  TRACK 08 AUDIO
    TITLE "0:"
    INDEX 01 00:09:49
  TRACK 09 AUDIO
    TITLE "6:cjc108_0324"
    INDEX 01 00:09:73
  TRACK 10 AUDIO
    TITLE "0:"
    INDEX 01 00:12:20
  TRACK 11 AUDIO
    TITLE "7:cjc108_0325"
    INDEX 01 00:12:38
  TRACK 12 AUDIO
    TITLE "0:"
    INDEX 01 00:16:55
  TRACK 13 AUDIO
    TITLE "5:cjc108_0326"
    INDEX 01 00:17:53
  TRACK 14 AUDIO
    TITLE "0:"
    INDEX 01 00:18:50
  TRACK 15 AUDIO
    TITLE "6:cjc108_0327"
    INDEX 01 00:18:58
  TRACK 16 AUDIO
    TITLE "0:"
    INDEX 01 00:20:67
  TRACK 17 AUDIO
    TITLE "7:cjc108_0328"
    INDEX 01 00:21:09
  TRACK 18 AUDIO
    TITLE "0:"
    INDEX 01 00:27:53
  TRACK 19 AUDIO
    TITLE "5:cjc108_0329"
    INDEX 01 00:28:59
  TRACK 20 AUDIO
    TITLE "0:"
    INDEX 01 00:29:58
  TRACK 21 AUDIO
    TITLE "6:cjc108_0330"
    INDEX 01 00:29:64
  TRACK 22 AUDIO
    TITLE "0:"
    INDEX 01 00:31:26
  TRACK 23 AUDIO
    TITLE "7:cjc108_0331"
    INDEX 01 00:31:45
  TRACK 24 AUDIO
    TITLE "0:"
    INDEX 01 00:38:16
  TRACK 25 AUDIO
    TITLE "5:cjc108_0332"
    INDEX 01 00:39:15
  TRACK 26 AUDIO
    TITLE "0:"
    INDEX 01 00:40:34
  TRACK 27 AUDIO
    TITLE "6:cjc108_0333"
    INDEX 01 00:40:64
  TRACK 28 AUDIO
    TITLE "0:"
    INDEX 01 00:44:38
  TRACK 29 AUDIO
    TITLE "7:cjc108_0334"
    INDEX 01 00:44:54
  TRACK 30 AUDIO
    TITLE "0:"
    INDEX 01 00:48:61
  TRACK 31 AUDIO
    TITLE "5:cjc108_0335"
    INDEX 01 00:49:57
  TRACK 32 AUDIO
    TITLE "0:"
    INDEX 01 00:50:50
  TRACK 33 AUDIO
    TITLE "6:cjc108_0336"
    INDEX 01 00:51:01
  TRACK 34 AUDIO
    TITLE "0:"
    INDEX 01 00:52:16
  TRACK 35 AUDIO
    TITLE "7:cjc108_0337"
    INDEX 01 00:52:36
  TRACK 36 AUDIO
    TITLE "0:"
    INDEX 01 00:57:07
  TRACK 37 AUDIO
    TITLE "5:cjc108_0338"
    INDEX 01 00:58:01
  TRACK 38 AUDIO
    TITLE "0:"
    INDEX 01 00:59:04
  TRACK 39 AUDIO
    TITLE "6:cjc108_0339"
    INDEX 01 00:59:39
  TRACK 40 AUDIO
    TITLE "0:"
    INDEX 01 01:01:13
  TRACK 41 AUDIO
    TITLE "7:cjc108_0340"
    INDEX 01 01:01:31
  TRACK 42 AUDIO
    TITLE "0:"
    INDEX 01 01:05:28
  TRACK 43 AUDIO
    TITLE "5:cjc108_0341"
    INDEX 01 01:06:26
  TRACK 44 AUDIO
    TITLE "0:"
    INDEX 01 01:07:25
  TRACK 45 AUDIO
    TITLE "6:cjc108_0342"
    INDEX 01 01:07:45
  TRACK 46 AUDIO
    TITLE "0:"
    INDEX 01 01:08:56
  TRACK 47 AUDIO
    TITLE "7:cjc108_0343"
    INDEX 01 01:09:01
  TRACK 48 AUDIO
    TITLE "0:"
    INDEX 01 01:13:20
  TRACK 49 AUDIO
    TITLE "5:cjc108_0344"
    INDEX 01 01:14:08
  TRACK 50 AUDIO
    TITLE "0:"
    INDEX 01 01:15:23
  TRACK 51 AUDIO
    TITLE "6:cjc108_0345"
    INDEX 01 01:15:46
  TRACK 52 AUDIO
    TITLE "0:"
    INDEX 01 01:18:23
  TRACK 53 AUDIO
    TITLE "7:cjc108_0346"
    INDEX 01 01:18:39
  TRACK 54 AUDIO
    TITLE "0:"
    INDEX 01 01:23:50
  TRACK 55 AUDIO
    TITLE "5:cjc108_0347"
    INDEX 01 01:24:41
  TRACK 56 AUDIO
    TITLE "0:"
    INDEX 01 01:25:57
  TRACK 57 AUDIO
    TITLE "6:cjc108_0348"
    INDEX 01 01:26:23
  TRACK 58 AUDIO
    TITLE "0:"
    INDEX 01 01:27:40
  TRACK 59 AUDIO
    TITLE "7:cjc108_0349"
    INDEX 01 01:27:59
  TRACK 60 AUDIO
    TITLE "0:"
    INDEX 01 01:32:31
  TRACK 61 AUDIO
    TITLE "5:cjc108_0350"
    INDEX 01 01:33:19
  TRACK 62 AUDIO
    TITLE "0:"
    INDEX 01 01:34:28
  TRACK 63 AUDIO
    TITLE "6:cjc108_0351"
    INDEX 01 01:34:42
  TRACK 64 AUDIO
    TITLE "0:"
    INDEX 01 01:37:46
  TRACK 65 AUDIO
    TITLE "7:cjc108_0352"
    INDEX 01 01:37:62
  TRACK 66 AUDIO
    TITLE "0:"
    INDEX 01 01:44:01
  TRACK 67 AUDIO
    TITLE "5:cjc108_0353"
    INDEX 01 01:44:70
  TRACK 68 AUDIO
    TITLE "0:"
    INDEX 01 01:46:10
  TRACK 69 AUDIO
    TITLE "6:cjc108_0354"
    INDEX 01 01:46:37
  TRACK 70 AUDIO
    TITLE "0:"
    INDEX 01 01:49:28
  TRACK 71 AUDIO
    TITLE "7:cjc108_0355"
    INDEX 01 01:49:41
  TRACK 72 AUDIO
    TITLE "0:"
    INDEX 01 01:54:07
